<?xml version="1.0" encoding="utf-8"?>
<svg version="1.1" id="Layer_1" xmlns="http://www.w3.org/2000/svg" xmlns:xlink="http://www.w3.org/1999/xlink" x="0px" y="0px"
	 viewBox="0 0 512 512" style="enable-background:new 0 0 512 512;" xml:space="preserve">
<defs>
  <linearGradient id="blue-grad" x1="0%" y1="0%" x2="100%" y2="100%">
    <stop offset="0%" stop-color="#3e63dd" />
    <stop offset="100%" stop-color="#0090ff" />
  </linearGradient>
  <filter id="glow" x="-20%" y="-20%" width="140%" height="140%">
    <feDropShadow dx="0" dy="6" stdDeviation="10" flood-color="#3e63dd" flood-opacity="0.25" />
  </filter>
  <mask id="lightning-mask">
    <!-- Everything white is visible -->
    <rect x="0" y="0" width="512" height="512" fill="white" />
    <!-- Everything black is cut out -->
    <path d="M 276,210 L 200,310 H 244 L 236,390 L 312,290 H 268 Z" fill="black" />
  </mask>
</defs>
<g filter="url(#glow)">
  <!-- Handle -->
  <path d="M 206,160 C 206,80 306,80 306,160" fill="none" stroke="url(#blue-grad)" stroke-width="24" stroke-linecap="round"/>
  <!-- Bag Body -->
  <path d="M 170,160 L 342,160 C 355,160 365,170 364,183 L 384,413 C 385,426 375,440 360,440 L 152,440 C 137,440 127,426 128,413 L 148,183 C 147,170 157,160 170,160 Z" fill="url(#blue-grad)" mask="url(#lightning-mask)" />
</g>
</svg>
